<?xml version="1.0" standalone="no"?>
<!DOCTYPE svg PUBLIC "-//W3C//DTD SVG 20010904//EN"
 "http://www.w3.org/TR/2001/REC-SVG-20010904/DTD/svg10.dtd">
<svg version="1.0" xmlns="http://www.w3.org/2000/svg"
 width="650.000000pt" height="650.000000pt" viewBox="0 0 650.000000 650.000000"
 preserveAspectRatio="xMidYMid meet">
<metadata>
Created by potrace 1.11, written by Peter Selinger 2001-2013
</metadata>
<g transform="translate(0.000000,650.000000) scale(0.100000,-0.100000)"
fill="#000000" stroke="none">
<path d="M0 3250 l0 -3250 3250 0 3250 0 0 3250 0 3250 -3250 0 -3250 0 0
-3250z m3695 2675 c227 -21 440 -50 655 -91 200 -38 596 -127 657 -148 l38
-13 3 -1018 2 -1018 -37 7 c-21 3 -46 6 -55 6 -17 0 -18 54 -20 958 l-3 957
-170 43 c-506 128 -989 199 -1415 209 -432 10 -776 -25 -1317 -132 -229 -46
-506 -115 -515 -129 -4 -6 -8 -439 -8 -962 0 -1033 4 -964 -51 -964 -19 0 -19
21 -19 1023 l0 1023 193 47 c459 112 950 190 1357 217 172 11 500 4 705 -15z
m-220 -195 c377 -24 790 -88 1190 -186 77 -18 150 -36 163 -39 l22 -5 0 -915
c0 -503 -3 -915 -7 -915 -5 0 -35 5 -68 10 -102 17 -461 58 -647 74 -726 64
-1649 34 -2393 -79 -55 -8 -108 -15 -117 -15 -17 0 -18 50 -18 919 l0 919 128
31 c269 64 513 111 757 146 440 61 678 75 990 55z m-2127 -2025 l-3 -88 -285
-59 c-156 -32 -287 -62 -291 -66 -3 -4 9 -68 27 -142 66 -268 145 -593 233
-961 12 -48 21 -94 21 -102 0 -11 -30 -22 -111 -42 -170 -40 -409 -68 -409
-47 0 8 73 415 135 757 4 25 -6 46 -64 130 -111 159 -351 513 -351 517 0 2 84
3 188 3 211 1 346 15 507 52 105 25 322 105 368 136 12 8 26 12 30 8 4 -4 7
-48 5 -96z m3947 52 c253 -113 529 -163 858 -155 75 2 137 1 137 -2 0 -3 -34
-54 -75 -115 -133 -194 -309 -455 -327 -483 -16 -26 -14 -40 52 -407 38 -209
70 -386 70 -392 0 -27 -214 -7 -407 38 -120 28 -119 27 -105 81 6 23 23 90 36
148 14 58 50 209 81 335 61 254 91 380 134 560 16 66 26 123 23 126 -4 4 -95
25 -202 47 -305 64 -384 82 -398 87 -10 4 -13 27 -11 87 2 89 5 102 23 94 6
-2 56 -25 111 -49z m-1640 -97 c662 -30 1314 -116 1856 -246 l106 -25 -49
-202 c-26 -111 -64 -269 -84 -352 -42 -178 -116 -485 -146 -607 -16 -68 -25
-88 -38 -88 -10 0 -69 12 -131 26 -406 92 -889 159 -1399 194 -189 13 -781 13
-985 0 -356 -23 -659 -57 -975 -111 -169 -28 -547 -106 -562 -115 -11 -7 -24
25 -41 101 -9 39 -34 144 -56 235 -22 91 -78 327 -126 525 -47 198 -88 367
-91 376 -6 20 43 35 281 83 825 169 1671 240 2440 206z m10 -1430 c379 -17
1046 -87 1073 -114 8 -8 -119 -244 -184 -341 -264 -396 -639 -717 -1128 -966
l-186 -94 -113 57 c-186 94 -487 282 -652 407 -307 232 -532 460 -677 686 -47
73 -118 208 -118 224 0 23 442 84 865 121 322 28 749 36 1120 20z m1238 -136
c45 -8 46 -5 -29 -159 -193 -399 -525 -769 -959 -1067 -162 -111 -482 -286
-616 -337 l-51 -20 -102 51 c-167 83 -391 215 -555 326 -426 287 -714 555
-912 848 -65 96 -177 320 -165 331 2 2 19 6 38 9 l34 6 48 -98 c57 -120 106
-198 190 -307 269 -347 738 -710 1293 -998 l112 -58 58 25 c293 128 603 320
837 517 100 84 279 267 359 367 126 158 252 360 317 512 27 62 30 63 103 52z"/>
<path d="M1854 5428 c-3 -4 -20 -49 -39 -100 -19 -51 -56 -151 -83 -223 -27
-71 -47 -134 -45 -138 3 -5 32 -7 65 -5 58 3 62 4 75 35 l13 33 94 0 94 0 7
-30 c4 -16 7 -30 8 -31 1 0 32 -3 70 -6 44 -3 67 -1 67 6 0 8 -126 347 -165
443 -5 13 -23 17 -82 20 -41 2 -77 0 -79 -4z m106 -195 c13 -38 25 -74 27 -80
4 -10 -10 -13 -51 -13 -35 0 -56 4 -56 11 0 19 45 149 51 149 4 0 17 -30 29
-67z"/>
<path d="M3075 5428 c-3 -7 -4 -115 -3 -238 l3 -225 168 -3 167 -2 0 55 0 55
-110 0 -110 0 0 40 0 40 111 0 110 0 -3 53 -3 52 -107 3 -108 3 0 34 0 35 110
0 110 0 0 50 0 50 -149 0 c-82 0 -156 3 -165 6 -9 3 -18 0 -21 -8z"/>
<path d="M4506 5430 l-68 -5 -38 -100 c-20 -55 -58 -156 -83 -224 -26 -68 -44
-127 -42 -131 3 -4 33 -7 67 -6 61 1 62 2 72 34 l9 32 93 0 94 0 14 -35 c15
-34 16 -35 75 -35 33 0 62 4 65 8 7 11 -166 461 -178 464 -6 2 -42 1 -80 -2z
m43 -206 c11 -33 21 -66 21 -72 0 -8 -20 -12 -56 -12 -41 0 -55 3 -52 13 3 6
16 42 29 79 13 37 27 64 30 60 4 -4 16 -34 28 -68z"/>
<path d="M2220 5194 l0 -235 153 3 152 3 3 53 3 52 -95 0 -96 0 0 180 0 180
-60 0 -60 0 0 -236z"/>
<path d="M2592 5198 l3 -233 160 0 c114 0 167 4 183 13 36 20 62 72 62 121 0
36 -6 49 -34 77 l-34 34 29 29 c52 52 36 141 -31 176 -22 11 -66 15 -185 15
l-155 0 2 -232z m266 120 c15 -15 16 -45 2 -53 -6 -3 -40 -7 -78 -7 -62 -1
-67 0 -70 21 -7 44 3 51 71 51 36 0 68 -5 75 -12z m16 -190 c8 -13 8 -23 0
-35 -9 -14 -28 -19 -88 -21 l-76 -3 0 34 c0 18 3 37 7 41 4 4 38 5 77 4 53 -2
71 -7 80 -20z"/>
<path d="M3481 5201 l0 -231 23 -6 c13 -3 40 -4 62 -2 l39 3 1 75 1 75 31 3
c28 3 32 -1 70 -75 l40 -78 66 -3 c36 -2 66 0 66 4 0 3 -20 43 -45 88 l-45 83
25 13 c83 45 87 196 7 255 -24 18 -46 20 -184 23 l-157 3 0 -230z m257 113
c12 -8 22 -24 22 -34 0 -35 -28 -50 -91 -50 l-59 0 0 50 0 50 53 0 c31 0 61
-6 75 -16z"/>
<path d="M3920 5380 l0 -50 65 0 65 0 2 -182 3 -183 55 0 55 0 3 183 2 182 65
0 65 0 0 50 0 50 -190 0 -190 0 0 -50z"/>
<path d="M2960 4664 c-168 -118 -345 -243 -395 -276 -49 -34 -109 -75 -132
-92 -23 -17 -65 -47 -93 -66 -29 -19 -65 -46 -81 -58 -16 -13 -29 -21 -29 -17
0 9 35 49 173 198 55 59 108 119 119 132 l18 24 -96 65 c-53 36 -99 66 -103
66 -3 0 -141 -98 -306 -218 l-300 -217 -3 -203 -2 -203 47 6 c83 10 242 24
748 66 199 16 993 23 1270 10 248 -12 672 -43 835 -61 47 -5 88 -10 93 -10 4
0 7 89 7 198 l-1 197 -236 175 c-129 96 -244 179 -253 184 -18 8 -86 -33 -470
-287 -74 -49 -144 -94 -155 -99 -21 -11 22 37 160 179 55 57 76 86 69 93 -17
17 -569 430 -574 429 -3 0 -142 -97 -310 -215z"/>
<path d="M2848 3533 l-148 -4 0 -54 0 -55 79 0 79 0 7 -180 8 -180 68 0 68 0
-6 185 -6 185 76 0 77 0 0 55 0 55 -77 -2 c-43 -1 -144 -4 -225 -5z"/>
<path d="M3250 3302 l0 -242 181 0 c148 0 187 3 216 17 94 44 95 174 1 217
-10 5 -10 7 2 13 8 3 27 19 42 34 54 53 29 143 -48 175 -22 9 -97 16 -214 21
l-180 6 0 -241z m314 112 c18 -17 19 -24 8 -41 -9 -15 -25 -17 -114 -15 l-68
2 0 35 0 35 79 0 c59 0 84 -4 95 -16z m-3 -174 c21 -12 25 -40 7 -58 -7 -7
-44 -12 -95 -12 l-83 0 0 40 0 40 76 0 c41 0 84 -5 95 -10z"/>
<path d="M2393 3503 c-34 -2 -66 -10 -72 -17 -10 -12 -91 -266 -127 -396 -8
-30 -17 -62 -20 -72 -4 -14 3 -16 58 -11 79 7 94 15 101 52 6 28 9 30 74 35
37 4 82 8 99 10 38 5 50 -2 63 -37 l11 -28 72 7 c40 3 75 8 76 10 2 1 -48 103
-111 226 -128 248 -108 228 -224 221z m71 -209 c21 -42 36 -78 33 -80 -2 -2
-32 -7 -67 -11 -59 -6 -63 -5 -58 13 3 10 14 49 24 87 10 37 21 67 24 67 4 0
23 -34 44 -76z"/>
<path d="M3977 3467 c-43 -74 -210 -408 -206 -412 2 -2 36 -6 75 -10 l71 -7
13 32 14 33 100 -7 c105 -7 126 -17 126 -57 0 -24 4 -25 86 -33 l72 -7 -49
168 c-27 92 -61 203 -75 245 -28 86 -20 81 -146 92 l-57 4 -24 -41z m128 -176
c9 -36 20 -71 23 -79 4 -12 -6 -14 -56 -10 -34 2 -64 7 -67 10 -3 3 11 40 31
82 21 42 40 73 44 69 4 -4 15 -37 25 -72z"/>
<path d="M4456 3438 c-13 -58 -59 -439 -54 -444 7 -6 330 -56 334 -51 8 8 21
98 15 101 -3 2 -50 9 -103 16 -81 11 -98 17 -98 31 0 18 37 277 46 321 5 24 2
26 -38 33 -24 3 -55 8 -70 11 -22 5 -28 1 -32 -18z"/>
<path d="M1742 3420 c-18 -4 -34 -9 -36 -11 -5 -6 70 -448 77 -455 3 -3 81 5
172 18 l167 23 -5 48 c-2 26 -6 49 -8 51 -2 3 -49 -1 -104 -8 -55 -8 -103 -12
-106 -10 -3 2 -12 49 -19 106 -7 57 -18 135 -25 173 l-11 70 -35 2 c-19 1 -49
-2 -67 -7z"/>
<path d="M1375 3353 c-93 -19 -172 -37 -174 -39 -6 -5 89 -446 98 -456 6 -6
118 16 127 25 3 3 -2 35 -11 71 -26 117 -32 109 101 134 64 11 118 23 120 25
6 5 -12 86 -20 94 -3 3 -58 -4 -122 -16 -126 -24 -134 -22 -134 26 0 25 -2 25
143 52 53 10 100 20 102 23 3 3 2 26 -1 51 -8 58 1 57 -229 10z"/>
<path d="M4920 3376 c0 -4 -18 -106 -41 -227 -22 -122 -38 -223 -36 -226 3 -2
71 -17 152 -33 81 -16 155 -32 165 -35 14 -4 20 3 29 39 6 25 11 49 11 54 0 6
-43 18 -95 28 -52 10 -99 20 -104 23 -4 3 7 80 25 171 39 193 39 186 18 194
-25 10 -124 19 -124 12z"/>
<path d="M2806 2963 l-38 -4 6 -52 c3 -29 8 -129 12 -223 4 -95 10 -177 14
-184 5 -8 47 -10 164 -4 l156 7 0 48 0 49 -100 0 -100 0 -1 28 c-1 15 -4 97
-8 182 l-6 155 -30 1 c-16 1 -47 -1 -69 -3z"/>
<path d="M3200 2810 c0 -166 8 -209 48 -253 66 -73 249 -89 341 -29 68 44 82
86 91 270 4 86 7 158 5 160 -1 1 -31 5 -67 9 l-65 6 -5 -150 c-7 -201 -19
-223 -115 -223 -36 0 -50 6 -74 29 l-29 29 0 156 0 156 -65 0 -65 0 0 -160z"/>
<path d="M2397 2936 c-122 -36 -190 -118 -191 -231 0 -179 181 -293 367 -229
48 16 132 95 124 117 -2 7 -25 20 -51 30 l-47 17 -33 -35 c-31 -32 -38 -35
-91 -35 -53 0 -60 3 -96 39 -35 34 -39 44 -39 87 0 84 57 144 135 144 30 0 75
-21 94 -44 12 -14 18 -13 62 9 27 14 49 31 49 38 0 18 -47 61 -89 82 -45 23
-134 28 -194 11z"/>
<path d="M3798 2724 c-9 -126 -13 -232 -9 -236 10 -10 307 -31 345 -24 38 7
82 51 92 93 9 36 -13 101 -41 119 l-25 16 33 22 c19 13 37 37 45 60 11 34 10
43 -5 74 -35 71 -82 86 -294 98 l-125 7 -16 -229z m295 94 c22 -11 22 -44 1
-56 -19 -11 -144 -4 -158 8 -4 5 -5 22 -1 40 l7 31 66 -7 c37 -3 75 -11 85
-16z m-26 -174 c26 -5 39 -39 23 -59 -13 -16 -83 -20 -139 -9 -27 6 -31 11
-31 39 0 17 3 35 7 39 7 6 89 1 140 -10z"/>
<path d="M2014 2093 c-8 -21 -18 -58 -21 -83 -5 -40 -2 -50 22 -78 15 -18 31
-32 35 -32 13 0 50 65 50 88 0 26 -50 142 -61 142 -5 0 -16 -17 -25 -37z"/>
<path d="M2406 2090 c-9 -22 -19 -58 -22 -80 -6 -33 -2 -45 20 -75 15 -19 31
-35 36 -35 4 0 18 16 30 36 16 25 21 45 17 69 -7 44 -43 125 -55 125 -6 0 -17
-18 -26 -40z"/>
<path d="M2790 2064 c-11 -36 -20 -73 -20 -81 0 -15 50 -83 62 -83 15 0 51 64
50 91 -1 35 -47 139 -61 139 -6 0 -19 -30 -31 -66z"/>
<path d="M3196 2102 c-8 -16 -20 -50 -27 -76 -11 -44 -10 -49 16 -86 15 -22
32 -40 36 -40 5 0 20 17 34 39 20 29 24 45 19 67 -7 32 -52 124 -59 124 -2 0
-11 -13 -19 -28z"/>
<path d="M3591 2113 c-5 -10 -16 -42 -25 -71 -17 -57 -12 -79 25 -122 l21 -24
29 34 c35 43 35 54 3 135 -27 68 -37 77 -53 48z"/>
<path d="M3974 2093 c-9 -21 -19 -58 -21 -83 -4 -39 -1 -51 22 -78 15 -18 30
-32 33 -32 14 0 52 67 52 89 0 28 -49 141 -61 141 -5 0 -16 -17 -25 -37z"/>
<path d="M4361 2075 c-28 -74 -26 -103 9 -145 l29 -35 26 30 c21 24 25 38 22
72 -5 43 -43 133 -57 133 -5 0 -18 -25 -29 -55z"/>
<path d="M1896 1953 c4 -16 11 -37 17 -48 16 -32 99 -135 109 -135 4 0 5 19 2
43 -9 58 -93 167 -129 167 -3 0 -2 -12 1 -27z"/>
<path d="M2167 1969 c-35 -21 -97 -129 -97 -171 0 -21 2 -38 5 -38 3 0 28 21
55 47 41 39 50 54 55 92 4 25 9 54 12 64 5 19 -4 21 -30 6z"/>
<path d="M2290 1960 c0 -61 23 -111 70 -150 26 -22 51 -40 54 -40 3 0 6 15 6
34 0 24 -12 51 -45 94 -51 71 -85 95 -85 62z"/>
<path d="M2554 1966 c-11 -8 -37 -42 -58 -75 -31 -52 -36 -66 -30 -97 l7 -36
48 48 c34 34 51 59 55 84 3 19 8 47 10 63 6 30 -2 34 -32 13z"/>
<path d="M2680 1963 c0 -11 7 -42 15 -69 11 -38 25 -58 62 -88 l48 -38 3 37
c3 31 -4 46 -41 93 -24 31 -53 62 -65 70 -20 13 -22 13 -22 -5z"/>
<path d="M2952 1973 c-7 -3 -30 -31 -52 -63 -33 -48 -40 -67 -40 -107 l0 -47
50 49 c38 38 51 59 60 97 16 77 14 84 -18 71z"/>
<path d="M3074 1943 c13 -71 27 -98 74 -137 l47 -39 3 41 c3 36 -2 49 -34 90
-41 50 -74 81 -88 82 -4 0 -5 -17 -2 -37z"/>
<path d="M3335 1962 c-11 -10 -35 -39 -52 -65 -26 -37 -33 -58 -33 -95 l0 -47
55 55 c50 50 55 60 61 113 7 60 2 67 -31 39z"/>
<path d="M3466 1943 c14 -75 21 -87 72 -131 l52 -45 0 43 c0 33 -8 51 -37 88
-39 50 -73 81 -86 82 -4 0 -5 -17 -1 -37z"/>
<path d="M3734 1966 c-12 -8 -38 -39 -58 -69 -31 -45 -37 -61 -34 -97 l3 -43
53 53 c49 48 53 57 59 111 3 32 4 59 2 59 -3 0 -14 -7 -25 -14z"/>
<path d="M3857 1974 c-3 -3 1 -31 8 -62 11 -48 21 -64 62 -99 26 -24 51 -43
55 -43 4 0 5 19 3 42 -8 59 -106 184 -128 162z"/>
<path d="M4127 1968 c-35 -19 -97 -128 -97 -170 0 -21 3 -38 6 -38 3 0 27 21
54 46 42 39 50 53 58 102 11 63 6 76 -21 60z"/>
<path d="M4248 1974 c-3 -3 1 -31 9 -64 13 -50 22 -65 65 -100 27 -23 52 -40
55 -37 3 3 2 24 -2 46 -10 58 -107 176 -127 155z"/>
<path d="M4517 1969 c-46 -27 -121 -179 -88 -179 8 0 121 173 121 185 0 8 -13
5 -33 -6z"/>
<path d="M2137 1767 c-32 -29 -57 -56 -57 -60 0 -5 10 -22 21 -39 l21 -30 34
33 c26 25 34 43 40 86 3 30 5 56 3 58 -2 2 -30 -20 -62 -48z"/>
<path d="M2528 1766 c-56 -51 -58 -55 -58 -105 0 -28 4 -51 8 -51 4 0 29 21
54 48 34 34 48 58 53 87 4 22 9 48 12 58 7 28 -9 20 -69 -37z"/>
<path d="M2964 1806 c-3 -8 -23 -26 -44 -41 -21 -14 -43 -39 -49 -53 -11 -28
-11 -102 0 -102 3 0 27 19 52 43 44 40 66 90 67 150 0 20 -18 23 -26 3z"/>
<path d="M3344 1796 c-11 -11 -35 -33 -52 -48 -29 -24 -32 -32 -32 -82 0 -31
4 -56 8 -56 4 0 27 19 50 43 36 36 44 53 52 103 6 32 10 60 10 62 0 8 -18 -3
-36 -22z"/>
<path d="M3707 1767 c-56 -51 -58 -53 -57 -104 0 -29 4 -53 9 -53 4 0 29 22
53 48 38 40 47 58 53 101 4 29 5 54 3 56 -2 2 -29 -20 -61 -48z"/>
<path d="M4097 1767 c-56 -51 -58 -53 -57 -104 0 -29 4 -53 8 -53 4 0 29 22
55 48 43 44 49 55 54 105 3 32 4 57 2 57 -2 0 -30 -24 -62 -53z"/>
<path d="M2283 1794 c3 -11 9 -37 13 -59 5 -30 19 -51 52 -82 25 -24 52 -43
60 -43 11 0 12 10 7 43 -9 59 -20 77 -73 117 -59 44 -65 47 -59 24z"/>
<path d="M2675 1793 c3 -10 11 -39 16 -64 8 -38 20 -55 59 -88 27 -23 51 -41
54 -41 10 0 7 90 -4 109 -9 18 -113 101 -126 101 -3 0 -3 -8 1 -17z"/>
<path d="M3070 1795 c0 -52 25 -107 66 -145 24 -22 48 -40 54 -40 5 0 10 21
10 47 0 43 -4 50 -47 91 -60 56 -83 68 -83 47z"/>
<path d="M3465 1773 c10 -59 36 -103 83 -141 l42 -35 0 56 0 56 -61 51 c-33
27 -63 50 -66 50 -3 0 -2 -17 2 -37z"/>
<path d="M3854 1783 c23 -94 28 -103 76 -143 l50 -42 0 55 c0 55 -1 56 -57
106 -32 28 -62 51 -67 51 -4 0 -5 -12 -2 -27z"/>
<path d="M4244 1793 c3 -10 10 -37 15 -61 10 -45 35 -82 57 -82 17 0 54 54 46
66 -11 14 -109 94 -117 94 -3 0 -4 -8 -1 -17z"/>
<path d="M4144 1637 c-11 -12 -37 -36 -57 -53 -35 -29 -37 -35 -37 -88 0 -31
2 -56 3 -56 8 0 86 79 95 96 10 19 27 124 20 124 -1 0 -12 -10 -24 -23z"/>
<path d="M2176 1629 c-16 -19 -16 -23 -3 -36 20 -21 37 -8 37 28 0 34 -9 37
-34 8z"/>
<path d="M2284 1620 c17 -87 26 -106 73 -144 l48 -38 3 38 c5 61 -5 81 -70
130 l-61 48 7 -34z"/>
<path d="M2538 1599 c-57 -50 -58 -51 -58 -105 0 -30 4 -54 9 -54 4 0 29 22
54 49 35 37 47 59 52 94 4 25 5 50 4 56 -2 6 -30 -12 -61 -40z"/>
<path d="M2928 1599 c-57 -50 -58 -51 -58 -105 0 -30 4 -54 8 -54 4 0 29 22
55 48 43 44 49 55 54 105 3 32 4 57 2 57 -2 0 -30 -23 -61 -51z"/>
<path d="M3068 1644 c-3 -2 1 -30 8 -62 11 -48 20 -64 61 -99 26 -24 52 -43
57 -43 5 0 6 17 2 38 -3 20 -6 44 -6 54 0 17 -113 121 -122 112z"/>
<path d="M3317 1597 c-57 -53 -57 -54 -55 -105 1 -29 5 -52 8 -52 3 0 27 21
53 48 31 31 48 59 52 82 4 19 8 45 11 58 7 33 -5 28 -69 -31z"/>
<path d="M3713 1602 c-53 -48 -58 -59 -55 -132 l2 -34 50 49 c38 38 51 59 60
97 18 85 15 86 -57 20z"/>
<path d="M4240 1633 c0 -10 3 -28 6 -41 6 -22 8 -22 25 -6 25 22 24 28 -6 48
-23 15 -25 15 -25 -1z"/>
<path d="M2676 1613 c15 -71 29 -95 71 -133 25 -22 48 -38 52 -36 4 3 4 28 1
57 -5 49 -9 56 -58 96 -62 50 -75 53 -66 16z"/>
<path d="M3466 1583 c12 -47 24 -66 62 -100 26 -24 51 -43 56 -43 5 0 6 24 4
52 -5 49 -10 57 -59 100 -71 65 -81 63 -63 -9z"/>
<path d="M3850 1630 c0 -5 5 -31 10 -57 9 -40 20 -56 60 -91 27 -23 51 -42 54
-42 8 0 8 84 0 104 -5 14 -107 96 -119 96 -3 0 -5 -4 -5 -10z"/>
<path d="M2588 1482 c-1 -4 -24 -25 -50 -47 -56 -46 -70 -87 -40 -117 19 -19
19 -19 55 14 29 27 38 44 46 92 6 33 11 61 11 63 0 7 -19 3 -22 -5z"/>
<path d="M2937 1439 c-56 -50 -57 -53 -57 -105 0 -30 4 -54 9 -54 4 0 28 22
53 48 37 40 46 57 52 101 4 29 5 55 3 57 -2 2 -29 -19 -60 -47z"/>
<path d="M3322 1436 c-50 -49 -52 -53 -52 -103 0 -29 4 -53 9 -53 15 0 101 99
101 117 0 10 3 35 6 56 4 20 3 36 -2 36 -5 -1 -33 -25 -62 -53z"/>
<path d="M3718 1437 l-58 -53 0 -59 0 -59 55 54 c43 43 56 62 61 96 11 76 4
79 -58 21z"/>
<path d="M4110 1439 c-30 -28 -50 -49 -44 -47 20 5 118 99 102 98 -2 0 -28
-23 -58 -51z"/>
<path d="M2680 1452 c0 -47 29 -112 65 -144 63 -56 65 -55 65 3 0 49 -3 55
-47 96 -64 59 -83 69 -83 45z"/>
<path d="M3074 1448 c3 -13 9 -40 12 -61 5 -28 19 -49 58 -84 l51 -46 3 54 3
54 -58 52 c-64 58 -78 64 -69 31z"/>
<path d="M3858 1464 c-3 -2 1 -32 10 -65 10 -42 23 -66 44 -84 36 -30 40 -30
62 -6 16 17 16 23 4 47 -14 29 -112 117 -120 108z"/>
<path d="M3464 1443 c3 -10 10 -37 16 -60 13 -53 100 -136 111 -106 3 10 4 35
1 56 -3 30 -15 46 -55 82 -54 47 -82 58 -73 28z"/>
<path d="M2582 1294 c-18 -13 -21 -19 -11 -30 20 -24 39 -16 39 16 0 35 1 35
-28 14z"/>
<path d="M2990 1302 c-8 -2 -39 -27 -67 -55 -48 -46 -53 -56 -53 -94 0 -48 8
-57 43 -44 31 12 70 78 86 145 13 53 13 55 -9 48z"/>
<path d="M3765 1298 c-11 -6 -42 -33 -68 -59 -45 -45 -48 -52 -43 -86 3 -21 5
-41 6 -45 0 -18 31 -6 63 25 24 22 40 51 52 90 20 71 18 90 -10 75z"/>
<path d="M3313 1246 c-52 -52 -54 -57 -51 -98 4 -53 23 -59 66 -23 22 19 38
46 52 92 11 36 20 69 20 74 0 24 -38 4 -87 -45z"/>
<path d="M2685 1243 c8 -26 22 -58 32 -71 21 -27 90 -69 99 -60 3 4 3 25 -1
47 -5 33 -17 48 -62 85 -73 61 -86 61 -68 -1z"/>
<path d="M3074 1258 c9 -49 48 -118 78 -141 37 -28 58 -17 58 32 0 35 -6 44
-57 90 -69 61 -88 65 -79 19z"/>
<path d="M3465 1258 c18 -82 75 -158 117 -158 15 0 18 9 18 44 0 41 -4 48 -57
95 -69 61 -88 65 -78 19z"/>
<path d="M3855 1263 c9 -37 13 -40 32 -20 13 13 14 19 3 31 -22 27 -43 20 -35
-11z"/>
<path d="M3220 972 c0 -93 3 -104 26 -95 11 4 14 27 14 94 0 82 -1 89 -20 89
-18 0 -20 -7 -20 -88z"/>
</g>
</svg>
